<?xml version="1.0" encoding="utf-8"?>
<!-- Generator: Adobe Illustrator 25.4.0, SVG Export Plug-In . SVG Version: 6.00 Build 0)  -->
<svg version="1.1" id="Capa_1" xmlns="http://www.w3.org/2000/svg" xmlns:xlink="http://www.w3.org/1999/xlink" x="0px" y="0px"
	 viewBox="0 0 100 100" style="enable-background:new 0 0 100 100;" xml:space="preserve">
<style type="text/css">
	.st0{fill:none;stroke:#000000;stroke-width:3.5077;stroke-miterlimit:10;}
	.st1{fill:none;stroke:#000000;stroke-width:3.5077;stroke-linecap:round;stroke-miterlimit:10;}
</style>
<g>
	<path class="st0" d="M3.3,44.6l52.3,8c2.7,0.4,5.5,0.2,8.1-0.7l33.2-11c1.6-0.5,1.3-2.8-0.3-3L56,33.5c-6.3-0.7-12.6-0.4-18.8,0.9
		l-34,7.1C1.5,41.9,1.6,44.3,3.3,44.6z"/>
	<path class="st0" d="M92.1,42L89,55.5c-0.7,3.1-2.9,5.6-5.9,6.8l-21.9,8.9c-1.6,0.6-3.4,0.8-5.2,0.5L19.5,65
		c-3.7-0.7-6.6-3.4-7.6-7L8.7,45.5"/>
	<line class="st1" x1="59" y1="52.8" x2="59" y2="71.7"/>
	<g>
		<line class="st1" x1="49.3" y1="34.5" x2="49.2" y2="51.6"/>
	</g>
</g>
</svg>
