<?xml version="1.0" encoding="utf-8"?>
<!-- Generator: Adobe Illustrator 25.3.0, SVG Export Plug-In . SVG Version: 6.00 Build 0)  -->
<svg version="1.1" id="Capa_1" xmlns="http://www.w3.org/2000/svg" xmlns:xlink="http://www.w3.org/1999/xlink" x="0px" y="0px"
	 viewBox="0 0 200 200" style="enable-background:new 0 0 200 200;" xml:space="preserve">
<style type="text/css">
	.st0{fill:#FFFFFF;}
</style>
<path class="st0" d="M188.9,11.2L188.9,11.2c-3.2-3.2-8.5-3.2-11.7,0L100,88.2L22.9,11.1c-3.2-3.2-8.5-3.2-11.7,0l0,0
	c-3.2,3.2-3.2,8.5,0,11.7L88.2,100l-77.1,77.1c-3.2,3.2-3.2,8.5,0,11.7l0,0c3.2,3.2,8.5,3.2,11.7,0l77.1-77.1l77.1,77.1
	c3.2,3.2,8.5,3.2,11.7,0l0,0c3.2-3.2,3.2-8.5,0-11.7L111.8,100l77.1-77.1C192.1,19.6,192.1,14.4,188.9,11.2z"/>
</svg>
