<?xml version="1.0" encoding="utf-8"?>
<!-- Generator: Adobe Illustrator 25.3.0, SVG Export Plug-In . SVG Version: 6.00 Build 0)  -->
<svg version="1.1" id="Capa_1" xmlns="http://www.w3.org/2000/svg" xmlns:xlink="http://www.w3.org/1999/xlink" x="0px" y="0px"
	 viewBox="0 0 100 100" style="enable-background:new 0 0 100 100;" xml:space="preserve">
<style type="text/css">
	.st0{fill:#FFFFFF;}
</style>
<path class="st0" d="M89,42.5h-7.5V29.9l0,0l0,0l-0.1-5.2c0-0.6-0.3-1.2-0.7-1.7L63,5.5c-0.5-0.5-1.1-0.8-1.8-0.7h-5H16.9
	c-4.6,0-8.3,3.8-8.3,8.3v73.7c0,4.6,3.8,8.3,8.3,8.3h56.2c4.6,0,8.3-3.8,8.3-8.3v-8.2h7.5c1.4,0,2.5-1.1,2.5-2.5V45
	C91.4,43.6,90.3,42.5,89,42.5z M58.8,9.8h1.4l16,16v1.5H63.2c-2.4,0-4.4-1.9-4.4-4.4V9.8z M76.4,86.9c0,1.8-1.5,3.4-3.4,3.4H16.9
	c-1.8,0-3.4-1.5-3.4-3.4V13.1c0-1.8,1.5-3.4,3.4-3.4h36.9V23c0,5.2,4.3,9.4,9.4,9.4h13.2v10.1H27.1c-1.4,0-2.5,1.1-2.5,2.5v31.2
	c0,1.4,1.1,2.5,2.5,2.5h49.3V86.9z M86.5,73.7H29.7V47.6h56.8V73.7z M42.3,55.4c-1.2,0-2.2,0.5-2.9,1.5c-0.7,1-1,2.4-1,4.2
	c0,3.7,1.4,5.6,4.3,5.6c0.8,0,1.7-0.1,2.4-0.3c0.8-0.2,1.6-0.5,2.4-0.8v4.4C45.8,70.6,44,71,42,71c-2.9,0-5.2-0.8-6.7-2.5
	s-2.3-4.2-2.3-7.3c0-2,0.4-3.8,1.1-5.3c0.7-1.5,1.8-2.6,3.2-3.5c1.4-0.8,3-1.2,5-1.2c2,0,4.1,0.4,6,1.3l-1.6,4.1
	c-0.7-0.3-1.4-0.6-2.1-0.8C43.9,55.5,43.1,55.4,42.3,55.4z M63.8,64.8c0,1.2-0.3,2.2-0.9,3.1c-0.6,0.9-1.5,1.6-2.6,2.1
	c-1.1,0.5-2.4,0.8-4.1,0.8c-1.3,0-2.3-0.1-3.2-0.3c-0.9-0.2-1.7-0.5-2.7-0.9V65c1,0.5,2,0.9,3,1.2c1.1,0.3,2,0.4,2.9,0.4
	c0.8,0,1.3-0.1,1.7-0.4s0.5-0.6,0.5-1c0-0.3-0.1-0.5-0.2-0.7c-0.1-0.2-0.4-0.4-0.7-0.6c-0.3-0.2-1.2-0.6-2.5-1.2
	c-1.2-0.6-2.2-1.1-2.8-1.6S51,60,50.7,59.3s-0.4-1.5-0.4-2.4c0-1.7,0.6-3.1,1.9-4.2c1.3-1,3-1.5,5.3-1.5c2,0,4.1,0.5,6.1,1.4
	L62,56.6c-1.8-0.8-3.4-1.2-4.7-1.2c-0.7,0-1.1,0.1-1.5,0.4c-0.3,0.2-0.5,0.5-0.5,0.9c0,0.4,0.2,0.7,0.6,1c0.4,0.3,1.4,0.8,3.1,1.6
	c1.6,0.7,2.8,1.5,3.5,2.4C63.5,62.4,63.8,63.5,63.8,64.8z M77.6,51.4h5.8l-6.3,19.3H71l-6.3-19.3h5.9l2.6,9.7
	c0.5,2.1,0.8,3.7,0.9,4.6c0.1-0.6,0.2-1.4,0.4-2.3c0.2-0.9,0.3-1.6,0.5-2.1L77.6,51.4z"/>
</svg>
