<?xml version="1.0" encoding="utf-8"?>
<!-- Generator: Adobe Illustrator 25.4.1, SVG Export Plug-In . SVG Version: 6.00 Build 0)  -->
<svg version="1.1" id="Capa_1" xmlns="http://www.w3.org/2000/svg" xmlns:xlink="http://www.w3.org/1999/xlink" x="0px" y="0px"
	 viewBox="0 0 200 200" style="enable-background:new 0 0 200 200;" xml:space="preserve">
<style type="text/css">
	.st0{fill:#FFFFFF;}
</style>
<path class="st0" d="M194.1,31.2c-3.4-3.4-8.1-5.3-12.9-5.3H18.8c-4.8,0-9.5,1.9-12.9,5.3c-3.4,3.4-5.3,8.1-5.3,12.9v111.9
	c0,4.8,1.9,9.5,5.3,12.9c3.4,3.4,8.1,5.3,12.9,5.3h162.3c4.8,0,9.5-1.9,12.9-5.3c3.4-3.4,5.3-8.1,5.3-12.9l0-111.9
	C199.4,39.2,197.5,34.6,194.1,31.2z M18.8,34.9h162.3c0.5,0,1,0.1,1.4,0.1l-76,79.4c-1.7,1.8-4.1,2.8-6.6,2.8c-2.5,0-4.9-1-6.6-2.8
	l-76-79.4C17.9,35,18.4,34.9,18.8,34.9z M9.7,44.1c0-1.1,0.2-2.2,0.6-3.2L58.3,91L9.7,150.7L9.7,44.1z M181.2,165.1H18.8
	c-2.5,0-4.9-1.1-6.7-2.9l52.5-64.5l22.2,23.2l0,0c3.4,3.6,8.2,5.6,13.2,5.6s9.7-2,13.2-5.6l20.7-21.7l53.9,63
	C186.1,164,183.7,165,181.2,165.1L181.2,165.1z M190.3,151.1l-50-58.5l49.4-51.7c0.4,1,0.6,2.1,0.6,3.2L190.3,151.1z"/>
</svg>
