<?xml version="1.0" encoding="utf-8"?>
<!-- Generator: Adobe Illustrator 25.3.0, SVG Export Plug-In . SVG Version: 6.00 Build 0)  -->
<svg version="1.1" id="Capa_1" xmlns="http://www.w3.org/2000/svg" xmlns:xlink="http://www.w3.org/1999/xlink" x="0px" y="0px"
	 viewBox="0 0 100 100" style="enable-background:new 0 0 100 100;" xml:space="preserve">
<style type="text/css">
	.st0{fill:#FFFFFF;}
</style>
<path class="st0" d="M92.5,64.6h-8.7v-45c0-4.2-1.7-8-4.5-10.8c-2.8-2.8-6.6-4.5-10.8-4.5H17.8h-1.6V6v58.6H7.5H5.9v1.6V94v1.6h1.6
	h85h1.6V94V66.2v-1.6H92.5z M19.4,7.6h49.2c3.3,0,6.3,1.4,8.5,3.5c2.2,2.2,3.5,5.2,3.5,8.5v45H19.4V7.6z M90.9,92.4H9.1V67.8h7.1
	h1.6h64.4h1.6h7.1V92.4z M27.5,23.9h45v3.2h-45V23.9z M27.5,35.2h45v3.2h-45V35.2z M27.5,46.5h45v3.2h-45V46.5z M36.7,81.6l4.5,1.4
	c-0.3,1.3-0.8,2.3-1.4,3.2c-0.7,0.8-1.5,1.5-2.4,1.9c-1,0.4-2.2,0.6-3.7,0.6c-1.8,0-3.3-0.3-4.4-0.8c-1.1-0.5-2.1-1.5-3-2.8
	c-0.8-1.3-1.2-3-1.2-5.1c0-2.8,0.7-4.9,2.2-6.4c1.5-1.5,3.5-2.2,6.2-2.2c2.1,0,3.7,0.4,4.9,1.3c1.2,0.8,2.1,2.2,2.7,3.9l-4.5,1
	c-0.2-0.5-0.3-0.9-0.5-1.1c-0.3-0.4-0.6-0.7-1.1-0.9c-0.4-0.2-0.9-0.3-1.4-0.3c-1.2,0-2.1,0.5-2.7,1.4c-0.5,0.7-0.7,1.8-0.7,3.3
	c0,1.8,0.3,3.1,0.8,3.8c0.6,0.7,1.3,1,2.4,1c1,0,1.7-0.3,2.2-0.8C36.1,83.5,36.5,82.7,36.7,81.6z M75.4,80.5
	c0.4,0.7,0.7,1.6,0.7,2.5c0,1.1-0.3,2.1-0.9,2.9c-0.6,0.9-1.4,1.6-2.5,2.1c-1.1,0.5-2.4,0.7-4,0.7c-2.8,0-4.8-0.5-5.9-1.6
	c-1.1-1.1-1.7-2.5-1.9-4.2l4.9-0.3c0.1,0.8,0.3,1.4,0.6,1.8c0.5,0.7,1.3,1,2.3,1c0.7,0,1.3-0.2,1.7-0.5c0.4-0.3,0.6-0.7,0.6-1.2
	c0-0.4-0.2-0.8-0.6-1.2c-0.4-0.3-1.3-0.7-2.6-1c-2.3-0.5-3.9-1.2-4.8-2c-1-0.8-1.5-1.9-1.5-3.2c0-0.9,0.2-1.7,0.7-2.4
	c0.5-0.8,1.2-1.4,2.2-1.8c1-0.4,2.4-0.7,4.1-0.7c2.1,0,3.8,0.4,4.9,1.2c1.1,0.8,1.8,2.1,2,3.8l-4.8,0.3c-0.1-0.7-0.4-1.3-0.8-1.6
	c-0.4-0.3-1-0.5-1.7-0.5c-0.6,0-1.1,0.1-1.4,0.4c-0.3,0.3-0.5,0.6-0.5,0.9c0,0.3,0.1,0.5,0.4,0.7c0.2,0.2,0.8,0.4,1.7,0.6
	c2.2,0.5,3.9,1,4.8,1.5C74.2,79.2,74.9,79.8,75.4,80.5z M54.9,71.8h5.2L54,88.4h-5.6l-6.3-16.6h5.4l3.7,12L54.9,71.8z"/>
</svg>
