<?xml version="1.0" encoding="utf-8"?>
<!-- Generator: Adobe Illustrator 25.3.0, SVG Export Plug-In . SVG Version: 6.00 Build 0)  -->
<svg version="1.1" id="Capa_1" xmlns="http://www.w3.org/2000/svg" xmlns:xlink="http://www.w3.org/1999/xlink" x="0px" y="0px"
	 viewBox="0 0 100 100" style="enable-background:new 0 0 100 100;" xml:space="preserve">
<style type="text/css">
	.st0{fill:#FFFFFF;}
</style>
<path class="st0" d="M56.6,81.6V6h-6.1c-15.7,2.8-31.3,5.5-47.1,8.2v71.5c15.5,2.7,31.2,5.5,46.7,8.3h6.4L56.6,81.6L56.6,81.6z
	 M33.5,65.9c-2-4.2-3.7-8.5-5.1-12.8c-1.4,4.1-3.4,8.1-5,12.1c-2.2,0-4.5-0.1-6.7-0.2c2.6-5.1,5.2-10.3,7.9-15.4
	c-2.3-5.3-4.8-10.4-7.2-15.7l6.8-0.4c1.5,4,3.2,7.9,4.4,12c1.4-4.3,3.4-8.5,5.1-12.6c2.3-0.2,4.6-0.3,7-0.4
	c-2.7,5.6-5.5,11.2-8.2,16.8c2.8,5.7,5.7,11.4,8.5,17.1C38.4,66.3,36,66.1,33.5,65.9L33.5,65.9z M59.2,15.8v5.4H70v8H59.2v4.4H70v8
	H59.2V46H70v8H59.2v4.4H70v7.9H59.2V71H70v7.7H59.2v5.4h37.4V15.8L59.2,15.8z M88.3,78.8H72.6V71h15.8V78.8z M88.3,66.4H72.6v-8
	h15.8V66.4z M88.3,54H72.6v-8h15.8V54z M88.3,41.6H72.6v-8h15.8V41.6z M88.3,29.2H72.6v-8h15.8V29.2z"/>
</svg>
