<?xml version="1.0" encoding="utf-8"?>
<!-- Generator: Adobe Illustrator 25.3.0, SVG Export Plug-In . SVG Version: 6.00 Build 0)  -->
<svg version="1.1" id="Capa_1" xmlns="http://www.w3.org/2000/svg" xmlns:xlink="http://www.w3.org/1999/xlink" x="0px" y="0px"
	 viewBox="0 0 100 100" style="enable-background:new 0 0 100 100;" xml:space="preserve">
<style type="text/css">
	.st0{fill:#107C41;}
</style>
<g>
	<path class="st0" d="M66.2,64H41.7c-1.9,0-3.4,1.6-3.4,3.4c0,1.9,1.6,3.4,3.4,3.4h24.6c1.9,0,3.4-1.6,3.4-3.4
		C69.8,65.5,68.2,64,66.2,64z"/>
	<path class="st0" d="M30.2,51.8c0,1.9,1.6,3.4,3.4,3.4h32.6c1.9,0,3.4-1.6,3.4-3.4c0-1.9-1.6-3.4-3.4-3.4H33.7
		C31.7,48.3,30.2,49.9,30.2,51.8z"/>
	<path class="st0" d="M84.3,12.8c0.1-1.6-0.5-3-1.5-4C81.7,7.6,80.1,7,78.6,7L39,6.9c-0.5,0-1.2,0.1-1.8,0.4L16.4,28.3
		c-0.1,0.1-0.1,0.1-0.2,0.2c-0.4,0.7-0.6,1.3-0.6,2v56.8c0,3.2,2.6,5.8,5.8,5.8h57.1c3.2,0,5.8-2.6,5.8-5.8L84.3,12.8z M77.3,86.1
		H22.7V34.2h14c3.5,0,6.2-2.7,6.2-6.2L42.8,14h34.5V86.1z"/>
</g>
</svg>
