<?xml version="1.0" encoding="utf-8"?>
<!-- Generator: Adobe Illustrator 25.3.0, SVG Export Plug-In . SVG Version: 6.00 Build 0)  -->
<svg version="1.1" id="Capa_1" xmlns="http://www.w3.org/2000/svg" xmlns:xlink="http://www.w3.org/1999/xlink" x="0px" y="0px"
	 viewBox="0 0 100 100" style="enable-background:new 0 0 100 100;" xml:space="preserve">
<g>
	<path d="M89,14.9C87.2,8.4,81.2,3.6,74.2,3.6s-13,4.8-14.8,11.3H4c-2.2,0-4,1.8-4,4v0c0,2.2,1.8,4,4,4h55.4
		c1.8,6.5,7.7,11.3,14.8,11.3s13-4.8,14.8-11.3h6.9c2.2,0,4-1.8,4-4v0c0-2.2-1.8-4-4-4H89z M82.5,18.9c0,1.4-0.4,2.8-1,4
		c-1.4,2.6-4.2,4.3-7.3,4.3s-5.9-1.8-7.3-4.3c-0.7-1.2-1-2.6-1-4s0.4-2.8,1-4c1.4-2.6,4.2-4.3,7.3-4.3s5.9,1.8,7.3,4.3
		C82.1,16.1,82.5,17.5,82.5,18.9z"/>
	<path d="M64.9,77.1c-1.8-6.5-7.7-11.3-14.8-11.3s-13,4.8-14.8,11.3H4.2c-2.2,0-4,1.8-4,4v0c0,2.2,1.8,4,4,4h31.1
		c1.8,6.5,7.7,11.3,14.8,11.3s13-4.8,14.8-11.3H96c2.2,0,4-1.8,4-4v0c0-2.2-1.8-4-4-4H64.9z M50.1,89.4c-3.2,0-5.9-1.8-7.3-4.3
		c-0.7-1.2-1-2.6-1-4s0.4-2.8,1-4c1.4-2.6,4.2-4.3,7.3-4.3s5.9,1.8,7.3,4.3c0.7,1.2,1,2.6,1,4s-0.4,2.8-1,4
		C56,87.7,53.2,89.4,50.1,89.4z"/>
	<path d="M40.5,46c-1.8-6.5-7.7-11.3-14.8-11.3c-7.1,0-13,4.8-14.8,11.3H4c-2.2,0-4,1.8-4,4v0c0,2.2,1.8,4,4,4h6.9
		c1.8,6.5,7.7,11.3,14.8,11.3c7.1,0,13-4.8,14.8-11.3h55.4c2.2,0,4-1.8,4-4v0c0-2.2-1.8-4-4-4H40.5z M34,50c0,1.4-0.4,2.8-1,4
		c-1.4,2.6-4.2,4.3-7.3,4.3s-5.9-1.8-7.3-4.3c-0.7-1.2-1-2.6-1-4c0-1.4,0.4-2.8,1-4c1.4-2.6,4.2-4.3,7.3-4.3s5.9,1.8,7.3,4.3
		C33.6,47.2,34,48.6,34,50z"/>
</g>
</svg>
