<?xml version="1.0" encoding="utf-8"?>
<!-- Generator: Adobe Illustrator 25.3.0, SVG Export Plug-In . SVG Version: 6.00 Build 0)  -->
<svg version="1.1" id="Capa_1" xmlns="http://www.w3.org/2000/svg" xmlns:xlink="http://www.w3.org/1999/xlink" x="0px" y="0px"
	 viewBox="0 0 200 200" style="enable-background:new 0 0 200 200;" xml:space="preserve">
<style type="text/css">
	.st0{fill:#FFFFFF;}
</style>
<path class="st0" d="M70.8,160.6h120.9c4.6,0,8.3,3.7,8.3,8.3v0c0,4.6-3.7,8.3-8.3,8.3H70.8c-4.6,0-8.3-3.7-8.3-8.3v0
	C62.5,164.3,66.2,160.6,70.8,160.6z"/>
<path class="st0" d="M8.3,22.7h183.4c4.6,0,8.3,3.7,8.3,8.3v0c0,4.6-3.7,8.3-8.3,8.3H8.3C3.7,39.3,0,35.6,0,31v0
	C0,26.4,3.7,22.7,8.3,22.7z"/>
<path class="st0" d="M8.3,91.7h183.4c4.6,0,8.3,3.7,8.3,8.3v0c0,4.6-3.7,8.3-8.3,8.3H8.3c-4.6,0-8.3-3.7-8.3-8.3v0
	C0,95.4,3.7,91.7,8.3,91.7z"/>
</svg>
