<?xml version="1.0" encoding="utf-8"?>
<!-- Generator: Adobe Illustrator 25.4.0, SVG Export Plug-In . SVG Version: 6.00 Build 0)  -->
<svg version="1.1" id="Capa_1" xmlns="http://www.w3.org/2000/svg" xmlns:xlink="http://www.w3.org/1999/xlink" x="0px" y="0px"
	 viewBox="0 0 100 100" style="enable-background:new 0 0 100 100;" xml:space="preserve">
<style type="text/css">
	.st0{fill:#517C2F;stroke:#517C2F;stroke-width:0.75;stroke-miterlimit:10;}
</style>
<g>
	<path class="st0" d="M74.8,76.7c0.9,0.9,2.1,1.2,2.8,1.2c0.8,0,2-0.4,2.8-1.2l13.4-13.4c0.4-0.4,0.9-0.9,0.9-1.4
		c0.4-1.1,0.4-1.9,0-3c0-0.1-0.1-0.2-0.2-0.3c-0.1-0.1-0.1-0.2-0.2-0.3c-0.1-0.2-0.2-0.5-0.5-0.7L80.6,44.1c-1.6-1.6-4.1-1.6-5.7,0
		c-1.6,1.6-1.6,4.1,0,5.7l6.5,6.5H55.3c-2.4,0-4.1,1.7-4.1,4.1s1.7,4.1,4.1,4.1h26.2L74.9,71C73.2,72.6,73.2,75.1,74.8,76.7z"/>
	<path class="st0" d="M95.9,18.7c0-8.6-7-15.5-15.5-15.5H19.5C10.9,3.2,4,10.2,4,18.7v62.6c0,8.6,7,15.5,15.5,15.5h60.9
		c8.6,0,15.5-7,15.5-15.5v-1.6c0-2.4-2-4.4-4.4-4.4c-2.4,0-4.4,2-4.4,4.4v1.6c0,3.8-3,6.8-6.8,6.8H19.5c-3.8,0-6.8-3-6.8-6.8V18.7
		c0-3.8,3-6.8,6.8-6.8h15.3v5.4c0,5.8,4.7,10.5,10.5,10.5h13c5.8,0,10.5-4.7,10.5-10.5v-5.4h11.7c3.8,0,6.8,3,6.8,6.8v22.4
		c0,2.4,2,4.4,4.4,4.4s4.4-2,4.4-4.4L95.9,18.7L95.9,18.7z M60.9,17.2c0,1.5-1.2,2.7-2.7,2.7h-13c-1.5,0-2.7-1.2-2.7-2.7v-5.3h18.4
		L60.9,17.2L60.9,17.2z"/>
</g>
</svg>
