<?xml version="1.0" encoding="utf-8"?>
<!-- Generator: Adobe Illustrator 25.3.0, SVG Export Plug-In . SVG Version: 6.00 Build 0)  -->
<svg version="1.1" id="Capa_1" xmlns="http://www.w3.org/2000/svg" xmlns:xlink="http://www.w3.org/1999/xlink" x="0px" y="0px"
	 viewBox="0 0 100 100" style="enable-background:new 0 0 100 100;" xml:space="preserve">
<style type="text/css">
	.st0{fill:#557D33;}
</style>
<g>
	<path class="st0" d="M59.6,0.4c-22.1,0-40,18-40,40c0,9.3,3.2,17.8,8.5,24.6L1.8,91.3c-1.9,1.9-1.9,5,0,6.9c1,1,2.2,1.4,3.4,1.4
		s2.5-0.5,3.4-1.4L35,71.9c6.8,5.3,15.3,8.5,24.6,8.5c22.1,0,40-18,40-40S81.6,0.4,59.6,0.4z M59.6,70.7c-8.1,0-15.5-3.2-21-8.5
		c-0.1-0.2-0.2-0.4-0.3-0.5s-0.3-0.2-0.5-0.3c-5.2-5.4-8.5-12.8-8.5-21c0-16.7,13.6-30.3,30.3-30.3s30.3,13.6,30.3,30.3
		S76.3,70.7,59.6,70.7z"/>
</g>
</svg>
