<?xml version="1.0" encoding="utf-8"?>
<!-- Generator: Adobe Illustrator 25.3.0, SVG Export Plug-In . SVG Version: 6.00 Build 0)  -->
<svg version="1.1" id="Capa_1" xmlns="http://www.w3.org/2000/svg" xmlns:xlink="http://www.w3.org/1999/xlink" x="0px" y="0px"
	 viewBox="0 0 100 100" style="enable-background:new 0 0 100 100;" xml:space="preserve">
<style type="text/css">
	.st0{fill:#FFFFFF;}
	.st1{opacity:0.1;}
	.st2{fill:#557D33;}
</style>
<path class="st0" d="M50,51.3c13.8,0,25.1-11.3,25.1-25.2C75.1,12.3,63.8,1,50,1S24.9,12.3,24.9,26.2C24.9,40,36.2,51.3,50,51.3z
	 M50,9.3c9.3,0,16.8,7.5,16.8,16.8S59.3,42.9,50,42.9s-16.8-7.5-16.8-16.8S40.7,9.3,50,9.3z M95.4,99c-1.5,0-2.9-0.8-3.6-2.2
	L81.5,76.3c-2.1-4.1-6.1-6.9-10.6-7.4l-1.1-0.1c-13.2-1.5-26.6-1.5-39.8,0l-0.8,0.1c-4.6,0.5-8.6,3.3-10.6,7.4L8.2,96.8
	c-1,2-3.4,2.8-5.4,1.8S0,95.2,1,93.2l10.3-20.6c3.3-6.5,9.6-11,16.9-11.8l0.8-0.1c13.8-1.6,27.8-1.6,41.6,0l1.1,0.1
	C79,61.6,85.3,66,88.6,72.6l10.3,20.5c1,2,0.2,4.4-1.8,5.4C96.6,98.9,96,99,95.4,99z"/>
<g>
	<g class="st1">
		<circle class="st2" cx="50" cy="50" r="49.6"/>
	</g>
	<g>
		<g>
			<path class="st2" d="M75,51.7H25c-1.7,0-3-1.3-3-3s1.3-3,3-3h50c1.7,0,3,1.3,3,3S76.6,51.7,75,51.7z"/>
		</g>
		<g>
			<path class="st2" d="M50,76.7c-1.7,0-3-1.3-3-3v-50c0-1.7,1.3-3,3-3s3,1.3,3,3v50C53,75.3,51.7,76.7,50,76.7z"/>
		</g>
	</g>
</g>
</svg>
