<?xml version="1.0" encoding="utf-8"?>
<!-- Generator: Adobe Illustrator 25.3.0, SVG Export Plug-In . SVG Version: 6.00 Build 0)  -->
<svg version="1.1" id="Capa_1" xmlns="http://www.w3.org/2000/svg" xmlns:xlink="http://www.w3.org/1999/xlink" x="0px" y="0px"
	 viewBox="0 0 100 100" style="enable-background:new 0 0 100 100;" xml:space="preserve">
<style type="text/css">
	.st0{fill:#557D33;}
</style>
<path class="st0" d="M97,98.3c-0.7,0.4-1.5,0.5-2.2,0.5c-1.7,0-3.4-0.9-4.3-2.6L79.8,75.6c-1.9-3.6-5.4-6.1-9.5-6.7
	c-5.8-0.8-12.6-1.2-20.3-1.2c-7.7,0-14.6,0.4-20.3,1.2c-4,0.6-7.6,3.1-9.5,6.7L9.4,96.2c-1.2,2.4-4.1,3.3-6.5,2
	c-2.3-1.2-3.3-4.1-2-6.5l10.8-20.7c3.3-6.3,9.5-10.7,16.6-11.7c6.2-0.9,13.5-1.3,21.7-1.3c8.2,0,15.5,0.5,21.7,1.3
	c7.1,1,13.3,5.4,16.6,11.7l10.8,20.7C100.3,94.1,99.4,97,97,98.3z M25.1,26.5c0-14,11.4-25.3,25.3-25.3s25.3,11.4,25.3,25.3
	S64.4,51.9,50.4,51.9S25.1,40.5,25.1,26.5z M34.7,26.5c0,8.7,7.1,15.8,15.8,15.8s15.8-7.1,15.8-15.8s-7.1-15.8-15.8-15.8
	S34.7,17.8,34.7,26.5z"/>
</svg>
