<?xml version="1.0" encoding="utf-8"?>
<!-- Generator: Adobe Illustrator 25.3.0, SVG Export Plug-In . SVG Version: 6.00 Build 0)  -->
<svg version="1.1" id="Capa_1" xmlns="http://www.w3.org/2000/svg" xmlns:xlink="http://www.w3.org/1999/xlink" x="0px" y="0px"
	 viewBox="0 0 100 100" style="enable-background:new 0 0 100 100;" xml:space="preserve">
<style type="text/css">
	.st0{fill:#557D33;}
</style>
<path class="st0" d="M98,30.1V70c0,16.4-13.3,29.7-29.7,29.7H42.7C26.3,99.7,13,86.4,13,70c0-2.7,2.2-4.9,4.9-4.9s4.9,2.2,4.9,4.9
	c0,11,8.9,19.9,19.9,19.9h25.6c11,0,19.9-8.9,19.9-19.9V30.1c0-11-8.9-19.9-19.9-19.9H42.7c-11,0-19.9,8.9-19.9,19.9v1.2
	c0,2.7-2.2,4.9-4.9,4.9S13,34,13,31.3v-1.2C13,13.7,26.3,0.4,42.7,0.4h25.6C84.6,0.4,98,13.7,98,30.1z M42.3,66.5
	c-1.9,1.9-1.9,5,0,6.9c1,1,2.2,1.4,3.4,1.4s2.5-0.5,3.4-1.4L68,54.5c0.4-0.4,0.8-1,1.1-1.6c0.5-1.2,0.5-2.5,0-3.7
	c-0.2-0.6-0.6-1.1-1.1-1.6L49.2,28.7c-1.9-1.9-5-1.9-6.9,0s-1.9,5,0,6.9l10.6,10.6h-47c-2.7,0-4.9,2.2-4.9,4.9S3.2,56,5.9,56h46.9
	L42.3,66.5z"/>
</svg>
