<?xml version="1.0" encoding="utf-8"?>
<!-- Generator: Adobe Illustrator 25.3.0, SVG Export Plug-In . SVG Version: 6.00 Build 0)  -->
<svg version="1.1" id="Capa_1" xmlns="http://www.w3.org/2000/svg" xmlns:xlink="http://www.w3.org/1999/xlink" x="0px" y="0px"
	 viewBox="0 0 100 100" style="enable-background:new 0 0 100 100;" xml:space="preserve">
<style type="text/css">
	.st0{fill:#557D33;}
</style>
<path class="st0" d="M0.4,20.6c0-2.4,1.9-4.3,4.3-4.3h64.9c2.4,0,4.3,1.9,4.3,4.3s-1.9,4.3-4.3,4.3H4.7C2.3,24.9,0.4,23,0.4,20.6z
	 M4.7,64.1h26.2c2.4,0,4.3-1.9,4.3-4.3s-1.9-4.3-4.3-4.3H4.7c-2.4,0-4.3,1.9-4.3,4.3S2.3,64.1,4.7,64.1z M4.7,44.5h64.9
	c2.4,0,4.3-1.9,4.3-4.3c0-2.4-1.9-4.3-4.3-4.3H4.7c-2.4,0-4.3,1.9-4.3,4.3C0.4,42.6,2.3,44.5,4.7,44.5z M42.9,75.1H4.7
	c-2.4,0-4.3,1.9-4.3,4.3c0,2.4,1.9,4.3,4.3,4.3h38.2c2.4,0,4.3-1.9,4.3-4.3C47.2,77,45.2,75.1,42.9,75.1z M98.2,41.1
	c-1.8-1.6-4.5-1.5-6.1,0.3L63.5,72.7l-12-15.6c-1.5-1.9-4.2-2.2-6.1-0.8c-1.9,1.5-2.2,4.2-0.8,6.1l15.2,19.6c0.8,1,2,1.6,3.2,1.7
	c0.1,0,0.1,0,0.2,0c1.2,0,2.4-0.5,3.2-1.4l32-35.2C100.1,45.4,100,42.7,98.2,41.1z"/>
</svg>
