<?xml version="1.0" encoding="utf-8"?>
<!-- Generator: Adobe Illustrator 25.4.0, SVG Export Plug-In . SVG Version: 6.00 Build 0)  -->
<svg version="1.1" id="Capa_1" xmlns="http://www.w3.org/2000/svg" xmlns:xlink="http://www.w3.org/1999/xlink" x="0px" y="0px"
	 viewBox="0 0 100 100" style="enable-background:new 0 0 100 100;" xml:space="preserve">
<style type="text/css">
	.st0{fill:#FFFFFF;}
</style>
<path class="st0" d="M58.9,85.4H32.6c-6.6,0-11.1,0-14.5-0.5c-3.2-0.4-4.7-1.2-5.8-2.2c-1-1-1.8-2.5-2.2-5.8
	c-0.5-3.4-0.5-7.9-0.5-14.5V44.1h73.4v14c3.5,0.8,6.6,2.4,9.2,4.6V36.1v-0.4V35c0-4.2,0-7.8-0.3-10.7c-0.3-3.3-1.1-6.3-2.9-9
	c-1.3-1.8-2.8-3.4-4.6-4.6c-2.7-1.8-5.7-2.6-9-2.9c-1.8-0.2-3.8-0.3-6.1-0.3V5.1c0-2.5-2.1-4.6-4.6-4.6c-2.5,0-4.6,2.1-4.6,4.6v2.3
	H32.6l0-2.3c0-2.5-2.1-4.6-4.6-4.6s-4.6,2.1-4.6,4.6v2.3c-2.3,0-4.3,0.1-6.1,0.3c-3.3,0.3-6.3,1.1-9,2.9c-1.8,1.3-3.4,2.8-4.6,4.6
	c-1.8,2.7-2.6,5.7-2.9,9C0.5,27.2,0.5,30.7,0.5,35v0.7v0.5v26.7c0,6.2,0,11.3,0.5,15.4c0.6,4.3,1.8,8,4.8,11c3,3,6.8,4.3,11,4.8
	c4.1,0.5,9.2,0.5,15.4,0.5h28.2c1.7,0,3.2,0,4.7,0C62.3,92.2,60.1,89,58.9,85.4z M10,25.2c0.3-2.6,0.7-3.8,1.4-4.7
	c0.6-0.9,1.4-1.7,2.3-2.3c0.9-0.6,2.1-1.1,4.7-1.3c1.4-0.1,3.1-0.2,5.1-0.3v2.3c0,2.5,2.1,4.6,4.6,4.6c2.5,0,4.6-2.1,4.6-4.6v-2.3
	h27.5v2.3c0,2.5,2.1,4.6,4.6,4.6c2.5,0,4.6-2.1,4.6-4.6v-2.3c2,0,3.7,0.1,5.1,0.3c2.6,0.3,3.8,0.7,4.7,1.3c0.9,0.6,1.7,1.4,2.3,2.3
	c0.6,0.9,1.1,2.1,1.3,4.7c0.2,2.4,0.3,5.4,0.3,9.7H9.7C9.7,30.7,9.7,27.6,10,25.2z"/>
<path class="st0" d="M57.7,78.6c0,2.4,0.4,4.7,1.2,6.9h1.3c6.6,0,11.1,0,14.5-0.5c0.8-0.1,1.5-0.2,2.1-0.4l0-4.1l-6.3,0h-0.9
	c-1,0-1.9-0.8-1.9-1.9c0-1,0.8-1.9,1.9-1.9h0.9l6.3,0l0-6.3v-0.9c0-0.7,0.4-1.4,1-1.7c0.3-0.1,0.5-0.2,0.8-0.2
	c0.5,0,0.9,0.2,1.2,0.5c0.4,0.3,0.6,0.8,0.6,1.4v1l0,6.3h2.2c0.4-3.3,0.4-7.8,0.4-14.2v-4.3c-1.4-0.3-2.9-0.5-4.5-0.5
	C67.1,57.7,57.7,67,57.7,78.6z"/>
<path class="st0" d="M92.3,62.8L92.3,62.8c0,6.2,0,11.4-0.5,15.4c-0.6,4.3-1.8,8-4.8,11c-3,3-6.8,4.3-11,4.8
	c-3,0.4-6.5,0.5-10.7,0.5c3.6,3,8.3,4.9,13.4,4.9c11.5,0,20.9-9.4,20.9-20.9C99.5,72.3,96.7,66.6,92.3,62.8z"/>
<path class="st0" d="M80.5,82.7c0.5-0.5,1-1.2,1.3-2.2h-1.3L80.5,82.7z"/>
<path class="st0" d="M86.9,89.2c3-3,4.3-6.8,4.8-11c0.5-4.1,0.5-9.2,0.5-15.4v0c-2.6-2.2-5.7-3.9-9.2-4.6v4.3c0,6.4,0,10.9-0.4,14.2
	l4.1,0h0.9c0.7,0,1.4,0.4,1.7,1c0.1,0.3,0.2,0.5,0.2,0.8c0,0.5-0.2,0.9-0.5,1.2c-0.3,0.4-0.8,0.6-1.4,0.6h-1l-4.9,0
	c-0.4,1-0.8,1.7-1.3,2.2l0,4.1v0.9c0,1-0.8,1.9-1.9,1.9c-1,0-1.9-0.8-1.9-1.9v-0.9l0-2.1c-0.6,0.1-1.3,0.3-2.1,0.4
	c-3.4,0.5-7.9,0.5-14.5,0.5h-1.3c1.3,3.6,3.5,6.8,6.3,9.2c4.1,0,7.7-0.1,10.7-0.5C80.1,93.5,83.9,92.2,86.9,89.2z"/>
</svg>
