<?xml version="1.0" encoding="utf-8"?>
<!-- Generator: Adobe Illustrator 25.3.0, SVG Export Plug-In . SVG Version: 6.00 Build 0)  -->
<svg version="1.1" id="Capa_1" xmlns="http://www.w3.org/2000/svg" xmlns:xlink="http://www.w3.org/1999/xlink" x="0px" y="0px"
	 viewBox="0 0 100 100" style="enable-background:new 0 0 100 100;" xml:space="preserve">
<style type="text/css">
	.st0{fill:#557D33;}
</style>
<g>
	<path class="st0" d="M37.1,60.5c-1.5,1.5-1.5,3.8,0,5.3c0.7,0.7,1.7,1.1,2.7,1.1s1.9-0.4,2.7-1.1l14.7-14.7
		c0.3-0.3,0.6-0.7,0.8-1.3c0.4-0.9,0.4-1.9,0-2.8c-0.2-0.5-0.5-0.8-0.8-1.3L42.5,31.1c-1.5-1.5-3.8-1.5-5.3,0s-1.5,3.8,0,5.3
		l8.2,8.2H8.9c-2,0.2-3.8,1.9-3.8,3.9s1.7,3.8,3.8,3.8h36.3L37.1,60.5z"/>
	<path class="st0" d="M80.2,62.4v-30c0-12.7-10.4-23-23-23H37.4c-12.7,0-23,10.3-23,23v0.9c0,2.1,1.7,3.8,3.8,3.8s3.8-1.7,3.8-3.8
		v-0.9c0-8.5,6.9-15.4,15.4-15.4h19.8c8.5,0,15.4,6.9,15.4,15.4v29.9c-8,1.6-14.3,8.2-15.2,16.4H37.4c-8.5,0-15.4-6.9-15.4-15.4
		c0-2.1-1.7-3.8-3.8-3.8s-3.8,1.7-3.8,3.8c0,12.7,10.3,23,23,23h19.8c0.2,0,0.4,0,0.6,0c2.3,7.9,9.6,13.7,18.2,13.7
		c10.5,0,19-8.5,19-19C95.1,71.9,88.7,64.4,80.2,62.4z M86.5,85h-7.1v7.1c0,1.5-1.2,2.7-2.7,2.7S74,93.6,74,92.1V85h-7.1
		c-0.5,0-0.8-0.1-1.2-0.3c-0.8-0.5-1.5-1.3-1.5-2.3c0-1.5,1.2-2.7,2.7-2.7h6.4H74V79v-6.4c0-1.5,1.2-2.7,2.7-2.7
		c0.9,0,1.6,0.5,2.2,1.1c0.3,0.5,0.5,0.9,0.5,1.6v7.1h7.1c1.5,0,2.7,1.2,2.7,2.7S87.9,85,86.5,85z"/>
</g>
</svg>
