<?xml version="1.0" encoding="utf-8"?>
<!-- Generator: Adobe Illustrator 25.3.0, SVG Export Plug-In . SVG Version: 6.00 Build 0)  -->
<svg version="1.1" id="Capa_1" xmlns="http://www.w3.org/2000/svg" xmlns:xlink="http://www.w3.org/1999/xlink" x="0px" y="0px"
	 viewBox="0 0 200 200" style="enable-background:new 0 0 200 200;" xml:space="preserve">
<style type="text/css">
	.st0{fill:#FFFFFF;}
</style>
<g>
	<path class="st0" d="M38.5,1.5c-4.5,0-8.2,3.7-8.2,8.2v180.5c0,4.5,3.7,8.2,8.2,8.2h123c4.5,0,8.2-3.7,8.2-8.2V59h-53.3
		c-2.3,0-4.1-1.8-4.1-4.1V1.5L38.5,1.5L38.5,1.5z M120.5,4.4v46.4h44.6L120.5,4.4z M98.3,54.6c3.1,0,5,1.4,6.2,2.6
		c4.7,5.1,2.8,16-2.3,32.7c5,11.9,12.6,24.7,20.3,34c3.4-0.6,6.7-0.9,9.8-1c9.3-0.3,16.7,1.8,20.9,5.7c2.9,2.8,3.9,6.4,2.6,9.6
		c-1.7,4.4-7.1,6.9-14.7,6.9c-7,0-14.5-4.9-21.5-12.3c-6.1,1.4-13.4,3.9-21.9,7.8c-5.4,2.5-10.2,4.9-14.4,7.2
		c-5,13.9-10.6,23.7-22.4,29.7c-3.4,1.7-6,2.3-8.1,2.3c-2.1,0-3.5-0.6-4.6-1.3c-2.1-1.4-3.1-3.7-2.9-6.4c0.5-6.6,9.3-17.4,31.2-29.9
		c1.3-3.8,2.6-7.9,4-12.5c1-3.3,2.1-6.7,3.3-10.4c1.5-4.6,3.1-9.4,4.7-14.1c1.7-5,3.4-10,5-14.9c-2.9-7.3-4.8-14-5.5-19.3
		c-1.5-12,3.7-15.1,6.9-15.9C96.2,54.7,97.3,54.5,98.3,54.6L98.3,54.6z M98.3,62.8c-0.2,0-0.7,0-1.4,0.2c-0.5,0.1-1.4,2-0.8,7
		c0.2,2,0.7,4.2,1.3,6.5c2.7-11.3,1.2-13.5,1.1-13.7C98.5,62.8,98.4,62.8,98.3,62.8L98.3,62.8z M98.4,101.4
		c-0.7,2.1-1.4,4.2-2.2,6.4c-1.6,4.7-3.2,9.5-4.7,14h0c-1.2,3.6-2.2,7.1-3.3,10.3c-0.5,1.6-1,3.1-1.4,4.6c2.3-1.1,4.7-2.3,7.3-3.5
		c6.7-3.1,13.2-5.5,19.4-7.3C107.9,118.6,102.7,110,98.4,101.4L98.4,101.4z M132.9,131.1c-1.1,0-2.2,0.1-3.4,0.2
		c4.1,3.6,8,5.7,11.5,5.7c4.7,0,6.6-1.2,7-1.6c-0.2-0.3-0.8-1.2-2.6-2.1C144.2,132.6,140.2,130.9,132.9,131.1L132.9,131.1z
		 M71.5,154.9c-11.8,7.8-16.4,13.8-17.6,16.5c0.8-0.2,1.8-0.5,3.3-1.3C63.8,166.8,68,161.9,71.5,154.9L71.5,154.9z"/>
</g>
</svg>
