<?xml version="1.0" encoding="utf-8"?>
<!-- Generator: Adobe Illustrator 25.3.0, SVG Export Plug-In . SVG Version: 6.00 Build 0)  -->
<svg version="1.1" id="Capa_1" xmlns="http://www.w3.org/2000/svg" xmlns:xlink="http://www.w3.org/1999/xlink" x="0px" y="0px"
	 viewBox="0 0 100 100" style="enable-background:new 0 0 100 100;" xml:space="preserve">
<path d="M56.2,4.7C38.1,5.9,23.5,20.3,22,38.4C21.2,48,24.2,57,29.7,63.9L5.9,87.7c-1.8,1.8-1.8,4.6,0,6.4l0,0
	c1.8,1.8,4.6,1.8,6.4,0l23.8-23.8c7,5.4,15.9,8.4,25.6,7.7c18-1.4,32.5-16.1,33.7-34.2C96.8,21.6,78.4,3.2,56.2,4.7z M58.6,69.1
	c-15.3,0-27.7-12.4-27.7-27.7s12.4-27.7,27.7-27.7c15.3,0,27.7,12.4,27.7,27.7S73.9,69.1,58.6,69.1z"/>
</svg>
