<?xml version="1.0" encoding="utf-8"?>
<!-- Generator: Adobe Illustrator 25.4.1, SVG Export Plug-In . SVG Version: 6.00 Build 0)  -->
<svg version="1.1" id="Capa_1" xmlns="http://www.w3.org/2000/svg" xmlns:xlink="http://www.w3.org/1999/xlink" x="0px" y="0px"
	 viewBox="0 0 200 200" style="enable-background:new 0 0 200 200;" xml:space="preserve">
<style type="text/css">
	.st0{fill:#FFFFFF;}
</style>
<path class="st0" d="M105.9,100.4l24,67.1l41.8-133L105.9,100.4L105.9,100.4z M165.5,28.2L32.5,70l67.1,24L165.5,28.2L165.5,28.2z
	 M180,14.2c1.6-0.6,3.5-0.3,4.8,1c1.3,1.3,1.6,3.2,1,4.8l-51.2,162.7c-0.4,1.4-1.4,2.6-2.8,3.1c-2.3,0.8-4.9-0.4-5.7-2.7l-28.8-80.4
	L16.9,74v0c-1.3-0.5-2.3-1.5-2.8-2.9c-0.7-2.4,0.6-4.9,2.9-5.6C71.4,48.4,125.7,31.4,180,14.2L180,14.2z"/>
</svg>
