<?xml version="1.0" encoding="utf-8"?>
<!-- Generator: Adobe Illustrator 25.4.1, SVG Export Plug-In . SVG Version: 6.00 Build 0)  -->
<svg version="1.1" id="Capa_1" xmlns="http://www.w3.org/2000/svg" xmlns:xlink="http://www.w3.org/1999/xlink" x="0px" y="0px"
	 viewBox="0 0 70 100" style="enable-background:new 0 0 70 100;" xml:space="preserve">
<style type="text/css">
	.st0{fill-rule:evenodd;clip-rule:evenodd;fill:#1A9141;}
</style>
<path class="st0" d="M36.9,17.4c6.4-6.1,16.7-6.1,23.1,0c6.5,6.2,6.5,16.3,0,22.5l-6.5,6.2c3.9,6.2,3,14.3-2.5,19.5l-17.8,17
	c-6.4,6.1-16.7,6.1-23.1,0c-6.5-6.2-6.5-16.3,0-22.5l6.5-6.2c-2.3-3.6-2.9-8-1.9-12.1c0.7-2.8,2.2-5.3,4.4-7.5L36.9,17.4z
	 M21.9,59.2l-6.6,6.4c-3.4,3.2-3.4,8.5,0,11.7c3.5,3.3,9.2,3.3,12.7,0l17.9-17.1c2.5-2.3,3.2-5.8,2-8.7L42,57
	C36.5,62.2,28.2,63,21.9,59.2L21.9,59.2z M48.1,40.8C41.8,37,33.5,37.8,28,43c-1.5,1.5-1.5,3.8-0.1,5.3c1.5,1.5,3.8,1.5,5.3,0.1
	c2.5-2.3,6.2-3.1,9.2-2l-5.5,5.3c-3.5,3.3-9.2,3.3-12.7,0c-2.3-2.2-3-5.2-2.3-7.9c0.3-1.4,1.1-2.8,2.3-3.9L42,22.8
	c3.5-3.3,9.2-3.3,12.7,0c3.4,3.2,3.4,8.5,0,11.7L48.1,40.8z"/>
</svg>
