<?xml version="1.0" encoding="utf-8"?>
<!-- Generator: Adobe Illustrator 24.2.3, SVG Export Plug-In . SVG Version: 6.00 Build 0)  -->
<svg version="1.1"
	 id="Capa_1" xmlns:cc="http://creativecommons.org/ns#" xmlns:dc="http://purl.org/dc/elements/1.1/" xmlns:inkscape="http://www.inkscape.org/namespaces/inkscape" xmlns:rdf="http://www.w3.org/1999/02/22-rdf-syntax-ns#" xmlns:sodipodi="http://sodipodi.sourceforge.net/DTD/sodipodi-0.dtd" xmlns:svg="http://www.w3.org/2000/svg"
	 xmlns="http://www.w3.org/2000/svg" xmlns:xlink="http://www.w3.org/1999/xlink" x="0px" y="0px" viewBox="0 0 6.6 6.6"
	 style="enable-background:new 0 0 6.6 6.6;" xml:space="preserve">
<style type="text/css">
	.st0{fill:#FFFFFF;}
</style>
<g>
	<path class="st0" d="M5.6,0.6C5.6,0.6,5.6,0.6,5.6,0.6c-0.1,0-0.2,0.1-0.2,0.2v0.6H4.9c0,0,0,0,0,0c-0.1,0-0.2,0.1-0.2,0.2
		c0,0.1,0.1,0.2,0.2,0.2h0.6v0.6c0,0.1,0.1,0.2,0.2,0.2c0.1,0,0.2-0.1,0.2-0.2c0,0,0,0,0,0V1.8h0.6c0.1,0,0.2-0.1,0.2-0.2
		c0-0.1-0.1-0.2-0.2-0.2c0,0,0,0,0,0H5.8V0.8C5.8,0.7,5.7,0.6,5.6,0.6C5.6,0.6,5.6,0.6,5.6,0.6L5.6,0.6z M4.5,0.6
		C4.5,0.6,4.5,0.6,4.5,0.6l-0.9,0c-0.1,0-0.2,0-0.2,0c-0.1,0-0.2,0-0.3,0c-0.2,0-0.4,0-0.5,0c-0.2,0-0.3,0.1-0.4,0.2c0,0,0,0,0,0
		C1.9,1,1.8,1.1,1.7,1.2C1.6,1.3,1.5,1.4,1.5,1.4H0.8C0.4,1.4,0,1.7,0,2.1v3.1C0,5.7,0.4,6,0.8,6h2.5h2.5c0.4,0,0.8-0.4,0.8-0.8V2.5
		c0-0.1-0.1-0.2-0.2-0.2c-0.1,0-0.2,0.1-0.2,0.2c0,0,0,0,0,0v2.8c0,0.2-0.2,0.4-0.4,0.4H3.3H0.8c-0.2,0-0.4-0.2-0.4-0.4V2.1
		c0-0.2,0.2-0.4,0.4-0.4h0.7c0.2,0,0.3-0.1,0.5-0.2c0.1-0.1,0.2-0.3,0.3-0.4C2.4,1.1,2.5,1,2.6,1C2.7,1,2.8,1,3,1c0.1,0,0.2,0,0.3,0
		c0.1,0,0.2,0,0.2,0c0,0,0.9,0,0.9,0c0.1,0,0.2-0.1,0.2-0.2C4.7,0.7,4.6,0.6,4.5,0.6C4.5,0.6,4.5,0.6,4.5,0.6L4.5,0.6z M3.3,2.5
		c-0.5,0-1,0.4-1,1s0.4,1,1,1c0.5,0,1-0.4,1-1S3.8,2.5,3.3,2.5z M3.3,2.9c0.3,0,0.6,0.3,0.6,0.6S3.6,4.1,3.3,4.1
		C3,4.1,2.7,3.8,2.7,3.5C2.7,3.2,3,2.9,3.3,2.9z"/>
</g>
</svg>
