<?xml version="1.0" encoding="utf-8"?>
<!-- Generator: Adobe Illustrator 25.3.0, SVG Export Plug-In . SVG Version: 6.00 Build 0)  -->
<svg version="1.1" id="Capa_1" xmlns="http://www.w3.org/2000/svg" xmlns:xlink="http://www.w3.org/1999/xlink" x="0px" y="0px"
	 viewBox="0 0 100 100" style="enable-background:new 0 0 100 100;" xml:space="preserve">
<style type="text/css">
	.st0{fill:#FFFFFF;}
</style>
<g>
	<g>
		<g>
			<path class="st0" d="M95.3-41.5c-1.2,0-2.4-0.7-2.9-2l-10.7-26c-1.3-3.3-4.3-5.6-7.8-6c-15.9-2-31.9-2-47.8,0
				c-3.5,0.5-6.5,2.8-7.8,6L7.6-43.4c-0.7,1.6-2.5,2.4-4.1,1.7c-1.6-0.7-2.4-2.5-1.7-4.1l10.7-26.1c2.2-5.3,7.1-9.1,12.9-9.9
				c16.4-2.1,33-2.1,49.4,0c5.7,0.7,10.7,4.5,12.9,9.9l10.7,26.1c0.7,1.6-0.1,3.5-1.7,4.1C96.2-41.6,95.8-41.5,95.3-41.5z"/>
		</g>
	</g>
	<g>
		<path class="st0" d="M50-90.2c-13.3,0-24.1-10.8-24.1-24.1s10.8-24.2,24.1-24.2s24.1,10.8,24.1,24.1S63.3-90.2,50-90.2z M50-132.2
			c-9.8,0-17.8,8-17.8,17.8s8,17.8,17.8,17.8s17.8-8,17.8-17.8S59.8-132.2,50-132.2z"/>
	</g>
</g>
<g>
	<path class="st0" d="M99.3,93.8L88.6,67.7C86.3,62,81,58,74.9,57.2c-16.5-2.1-33.2-2.1-49.7,0c-6.1,0.8-11.3,4.9-13.7,10.5
		L0.9,93.8C0,95.9,1,98.3,3.1,99.2c0.5,0.2,1.1,0.3,1.6,0.3s1.1-0.1,1.6-0.3c1-0.4,1.8-1.2,2.2-2.3l10.7-26.1c1.2-2.9,3.9-4.9,7-5.4
		c15.8-2,31.8-2,47.6,0c3.1,0.4,5.8,2.4,7,5.4l10.7,26c0.6,1.6,2.1,2.6,3.8,2.6c0.5,0,1-0.1,1.4-0.2l0.4-0.1c1-0.4,1.8-1.2,2.3-2.2
		C99.8,96,99.8,94.8,99.3,93.8z"/>
	<path class="st0" d="M50,50.8c13.8,0,25.1-11.3,25.1-25.2C75.1,11.8,63.8,0.5,50,0.5S24.9,11.8,24.9,25.7
		C24.9,39.5,36.2,50.8,50,50.8z M50,8.8c9.3,0,16.8,7.5,16.8,16.8S59.3,42.4,50,42.4s-16.8-7.5-16.8-16.8S40.7,8.8,50,8.8z"/>
</g>
</svg>
